<svg id="Objects" xmlns="http://www.w3.org/2000/svg" viewBox="0 0 74.85 76.47"><defs><style>.cls-1{fill:#e0e0e0;}</style></defs><title>Векторный смарт-объект8</title><path class="cls-1" d="M82.87,675.63c-3.56,1.24-5.29,5.57-3.86,9.67l20,57.2c1.43,4.1,5.48,6.42,9,5.18l5-1.76-25.13-72Z" transform="translate(-78.51 -671.53)"/><path class="cls-1" d="M101,692.15a4.56,4.56,0,0,0,2.81-5.81l-4.1-11.75a4.56,4.56,0,0,0-5.81-2.8L90.35,673l7.1,20.36Z" transform="translate(-78.51 -671.53)"/><path class="cls-1" d="M117.71,726.28a4.56,4.56,0,0,0-5.81-2.81l-3.52,1.23,7.1,20.36,3.52-1.23a4.56,4.56,0,0,0,2.8-5.81Z" transform="translate(-78.51 -671.53)"/><path class="cls-1" d="M119.44,701.88l1-.83c1.56-1.4,2.86-2.84,2.86-4.65s-1.35-3.39-3.79-3.39a6,6,0,0,0-3.54,1.11l.71,1.81A3.9,3.9,0,0,1,119,695c1.24,0,1.78.7,1.78,1.58,0,1.26-1.17,2.47-3.53,4.58l-1.39,1.26V704h7.67v-2.07h-4Z" transform="translate(-78.51 -671.53)"/><path class="cls-1" d="M131.87,693.18h-3.08l-4.06,6.59v1.6h4.77V704h2.38v-2.59h1.35V699.5h-1.35Zm-2.38,3.95v2.37h-2.38v0l1.42-2.34c.37-.68.63-1.37,1-2h.07C129.52,695.77,129.49,696.48,129.49,697.13Z" transform="translate(-78.51 -671.53)"/><path class="cls-1" d="M139.4,695.68a2.82,2.82,0,0,0-1.31.31,3.55,3.55,0,0,0-1,.82h-.06v-4.56h-2.49V704h2.49v-4.79a1.6,1.6,0,0,1,.1-.57,1.36,1.36,0,0,1,1.27-.88c.95,0,1.33.73,1.33,1.79V704h2.49v-4.72C142.23,696.8,141,695.68,139.4,695.68Z" transform="translate(-78.51 -671.53)"/><path class="cls-1" d="M129,675.15a24.33,24.33,0,1,0,24.33,24.33A24.35,24.35,0,0,0,129,675.15Zm0,42a17.69,17.69,0,1,1,17.69-17.69A17.71,17.71,0,0,1,129,717.17Z" transform="translate(-78.51 -671.53)"/></svg>