<svg id="Objects" xmlns="http://www.w3.org/2000/svg" viewBox="0 0 65.93 64.41"><defs><style>.cls-1{fill:#e0e0e0;}</style></defs><title>Векторный смарт-объект4</title><circle class="cls-1" cx="10.53" cy="14.32" r="1.91"/><circle class="cls-1" cx="15.87" cy="12.41" r="1.91"/><circle class="cls-1" cx="13.97" cy="18.05" r="1.91"/><path class="cls-1" d="M368,615.83c3.16-2.16,5-4.9,5-8.22a39.13,39.13,0,0,0-1.49-9.32,3.7,3.7,0,0,0-3.53-2.6H311.36V564.91a1.38,1.38,0,0,1,1.41-1.37h2.93a1.36,1.36,0,0,1,1.38,1.38v1.46a2.16,2.16,0,0,0,4.33,0V564.2a5,5,0,0,0-5-5h-4.32a5,5,0,0,0-5,5s0,43.22,0,43.41c0,3.32,1.83,6.06,5,8.22l-2.87,2.9a2.86,2.86,0,0,0,4.07,4l4.2-4.24c5.9,2.18,13.83,3.28,22.57,3.28s16.67-1.1,22.56-3.28l4.2,4.24a2.87,2.87,0,0,0,4.07-4Z" transform="translate(-307.03 -559.2)"/></svg>