<svg id="Objects" xmlns="http://www.w3.org/2000/svg" viewBox="0 0 66.11 69.52"><defs><style>.cls-1{fill:#e0e0e0;}</style></defs><title>Векторный смарт-объект7</title><path class="cls-1" d="M595.26,232.32l-30.77-30.77a6.21,6.21,0,0,0-8.78,0L538.86,218.4a6.3,6.3,0,0,0,0,8.86l2.79,2.87h6.44l-6-6.09a1.72,1.72,0,0,1-.48-1.21,1.68,1.68,0,0,1,.48-1.19l2.23-2.16,10.57,10.64H565L549.38,214.4l9.55-9.59a1.68,1.68,0,0,1,1.17-.5,1.63,1.63,0,0,1,1.17.47L592,235.55a1.64,1.64,0,0,1,.49,1.17,1.74,1.74,0,0,1-.53,1.17l-1.75,1.7V246l5-4.92A6.21,6.21,0,0,0,595.26,232.32Z" transform="translate(-530.94 -199.73)"/><path class="cls-1" d="M580.82,233H537.3a6.32,6.32,0,0,0-6.36,6.19v16.46h56V239.2A6.13,6.13,0,0,0,580.82,233Zm-34.67,17a4.5,4.5,0,0,1-3.13-1.26,4.52,4.52,0,1,1,0-6.51,4.52,4.52,0,1,1,3.13,7.77Z" transform="translate(-530.94 -199.73)"/><path class="cls-1" d="M530.94,263a6.35,6.35,0,0,0,6.36,6.22h43.52A6.16,6.16,0,0,0,587,263v-.37h-56Z" transform="translate(-530.94 -199.73)"/></svg>