<svg id="Objects" xmlns="http://www.w3.org/2000/svg" viewBox="0 0 74.97 68.2"><defs><style>.cls-1{fill:#e0e0e0;}</style></defs><title>Векторный смарт-объект</title><path class="cls-1" d="M142.07,363.73a15.79,15.79,0,0,0-2.85,5H93.08a16.1,16.1,0,0,0-3-5H85.59a10.45,10.45,0,0,1-5.43-1.54H78.69V367a8,8,0,0,0,2.48,5.34,7.62,7.62,0,0,0,4.42,1.54h61.17a6.91,6.91,0,0,0,6.9-6.88v-5.87a10.29,10.29,0,0,1-6.9,2.65Z" transform="translate(-78.69 -319.15)"/><path class="cls-1" d="M146.76,319.15H85.59a6.84,6.84,0,0,0-6.9,6.8v27.47a8,8,0,0,0,2.48,5.35,7.61,7.61,0,0,0,4.42,1.54h61.17a6.92,6.92,0,0,0,6.9-6.89V325.94A6.84,6.84,0,0,0,146.76,319.15Zm1.77,26.55a15.54,15.54,0,0,0-9.3,9.48H93.08a16.52,16.52,0,0,0-9.24-9.38V333.61A15.63,15.63,0,0,0,93,324.19h46.22a14.57,14.57,0,0,0,9.26,9.5Z" transform="translate(-78.69 -319.15)"/><path class="cls-1" d="M116.12,327.54a12.16,12.16,0,1,0,12.16,12.16A12.16,12.16,0,0,0,116.12,327.54Zm1,19.12v2.27H115v-2.11a9,9,0,0,1-3.84-1l.66-2.63a7.91,7.91,0,0,0,3.72,1c1.28,0,2.15-.49,2.15-1.39s-.72-1.39-2.38-2c-2.4-.81-4-1.93-4-4.11,0-2,1.4-3.53,3.8-4v-2.14h2.23v2a8.2,8.2,0,0,1,3.24.74l-.66,2.54a7.49,7.49,0,0,0-3.24-.76c-1.46,0-1.93.63-1.93,1.26s.78,1.21,2.69,1.93c2.67.94,3.74,2.18,3.74,4.2S119.69,346.21,117.12,346.66Z" transform="translate(-78.69 -319.15)"/><path class="cls-1" d="M142.07,377.25a15.78,15.78,0,0,0-2.85,5H93.08a16.1,16.1,0,0,0-3-5H85.59a10.45,10.45,0,0,1-5.43-1.54H78.69v4.76a8,8,0,0,0,2.48,5.34,7.61,7.61,0,0,0,4.42,1.54h61.17a6.91,6.91,0,0,0,6.9-6.88V374.6a10.28,10.28,0,0,1-6.9,2.65Z" transform="translate(-78.69 -319.15)"/></svg>