<svg id="Objects" xmlns="http://www.w3.org/2000/svg" viewBox="0 0 48.45 65.9"><defs><style>.cls-1{fill:#e0e0e0;}</style></defs><title>Векторный смарт-объект5</title><path class="cls-1" d="M247.17,209.54a4,4,0,0,0,4.06-4V205a4,4,0,0,0-4-4H206.92a4,4,0,0,0-4.15,4v.47a4,4,0,0,0,4,4H207v39.18h-.21a4,4,0,0,0-4,4v.47a4,4,0,0,0,4,4H207V267h14.33V257a3.29,3.29,0,0,1,3.31-3.25h4.69a3.27,3.27,0,0,1,3.3,3.25V267h14.33v-9.74h.23a4,4,0,0,0,4.06-4v-.47a4,4,0,0,0-4.06-4h-.23V209.54ZM220.3,246.46a1.56,1.56,0,0,1-1.56,1.56h-4a1.56,1.56,0,0,1-1.56-1.56v-4a1.56,1.56,0,0,1,1.56-1.56h4a1.56,1.56,0,0,1,1.56,1.56Zm0-10.21a1.56,1.56,0,0,1-1.56,1.56h-4a1.56,1.56,0,0,1-1.56-1.56v-4a1.56,1.56,0,0,1,1.56-1.56h4a1.56,1.56,0,0,1,1.56,1.56Zm0-10.21a1.56,1.56,0,0,1-1.56,1.56h-4a1.56,1.56,0,0,1-1.56-1.56v-4a1.56,1.56,0,0,1,1.56-1.56h4a1.56,1.56,0,0,1,1.56,1.56Zm0-10.21a1.56,1.56,0,0,1-1.56,1.56h-4a1.56,1.56,0,0,1-1.56-1.56v-4a1.56,1.56,0,0,1,1.56-1.56h4a1.56,1.56,0,0,1,1.56,1.56Zm10.21,30.62a1.56,1.56,0,0,1-1.56,1.56h-4a1.56,1.56,0,0,1-1.56-1.56v-4a1.56,1.56,0,0,1,1.56-1.56h4a1.56,1.56,0,0,1,1.56,1.56Zm0-10.21a1.56,1.56,0,0,1-1.56,1.56h-4a1.56,1.56,0,0,1-1.56-1.56v-4a1.56,1.56,0,0,1,1.56-1.56h4a1.56,1.56,0,0,1,1.56,1.56Zm0-10.21a1.56,1.56,0,0,1-1.56,1.56h-4a1.56,1.56,0,0,1-1.56-1.56v-4a1.56,1.56,0,0,1,1.56-1.56h4a1.56,1.56,0,0,1,1.56,1.56Zm0-10.21a1.56,1.56,0,0,1-1.56,1.56h-4a1.56,1.56,0,0,1-1.56-1.56v-4a1.56,1.56,0,0,1,1.56-1.56h4a1.56,1.56,0,0,1,1.56,1.56Zm10.21,30.62a1.56,1.56,0,0,1-1.56,1.56h-4a1.56,1.56,0,0,1-1.56-1.56v-4a1.56,1.56,0,0,1,1.56-1.56h4a1.56,1.56,0,0,1,1.56,1.56Zm0-10.21a1.56,1.56,0,0,1-1.56,1.56h-4a1.56,1.56,0,0,1-1.56-1.56v-4a1.56,1.56,0,0,1,1.56-1.56h4a1.56,1.56,0,0,1,1.56,1.56Zm0-10.21a1.56,1.56,0,0,1-1.56,1.56h-4a1.56,1.56,0,0,1-1.56-1.56v-4a1.56,1.56,0,0,1,1.56-1.56h4a1.56,1.56,0,0,1,1.56,1.56Zm0-10.21a1.56,1.56,0,0,1-1.56,1.56h-4a1.56,1.56,0,0,1-1.56-1.56v-4a1.56,1.56,0,0,1,1.56-1.56h4a1.56,1.56,0,0,1,1.56,1.56Z" transform="translate(-202.77 -201.05)"/></svg>