<svg id="Objects" xmlns="http://www.w3.org/2000/svg" viewBox="0 0 72.87 43.94"><defs><style>.cls-1{fill:#e0e0e0;}</style></defs><title>Векторный смарт-объект3</title><path class="cls-1" d="M198.24,365.12a4.24,4.24,0,0,0-3.41,1.72l-4.18,5.65a1.87,1.87,0,0,0-.11,2.06,2,2,0,0,0,1.93,1h62a2.28,2.28,0,0,0,2.25-2.23V367.6a2.48,2.48,0,0,0-2.48-2.48Z" transform="translate(-190.29 -331.57)"/><path class="cls-1" d="M254.82,353.54l1.91-4.11a16.88,16.88,0,0,0,1.57-7.11v-2.66c0-4.39-2.55-8.08-6.94-8.08h-25c-16,0-29.07,12.88-30.21,27.71a2,2,0,0,0,1.95,2.11H248.5a3.38,3.38,0,0,0,2-.69l1.17-.88h8.67a3.16,3.16,0,0,0,0-6.28ZM216.42,357a1.73,1.73,0,0,1-1.73,1.71h-11a1.73,1.73,0,1,1,0-3.46h11a1.73,1.73,0,0,1,1.73,1.74Zm4.21,1.64a1.76,1.76,0,1,1,1.76-1.76A1.76,1.76,0,0,1,220.63,358.68Zm7-13.13a7.73,7.73,0,0,1,7.89-7.71h13.1c2.46,0,3.37,1.22,3.37,3.67v.89c0,2.45-.92,4.86-3.37,4.86H229.56A1.75,1.75,0,0,1,227.67,345.56Z" transform="translate(-190.29 -331.57)"/></svg>