<svg id="Objects" xmlns="http://www.w3.org/2000/svg" viewBox="0 0 68.79 69.92"><defs><style>.cls-1{fill:#e0e0e0;}</style></defs><title>Векторный смарт-объект6</title><path class="cls-1" d="M435.58,260.5a17.4,17.4,0,0,0-2.59,5.82,2.11,2.11,0,0,0,.46,1.92,2.32,2.32,0,0,0,1.93.76h29.49a2.31,2.31,0,0,0,1.92-.76,2.28,2.28,0,0,0,.47-2,17.22,17.22,0,0,0-2.59-5.78c7.41-3.37,13.44-10.46,17.05-16.46h-63.2C422.13,250,428.17,257.14,435.58,260.5Z" transform="translate(-415.73 -199.08)"/><path class="cls-1" d="M420.81,229c-1.55,0-3,1.35-4,2.57a5.12,5.12,0,0,0-1,4.34c.16.67.34,2.09.53,2.09h67.45c.2,0,.37-1.09.53-1.77a6.18,6.18,0,0,0-1-4.81c-1-1.22-2.43-2.42-4-2.42Z" transform="translate(-415.73 -199.08)"/><path class="cls-1" d="M443.87,212.79c.94,6.71,9.21,9,12.13,12.88a.74.74,0,0,0,1.34-.44c0-5.88-7.21-8.49-7.44-14a13.46,13.46,0,0,1,4.84-10.85.74.74,0,0,0-.65-1.29C449.78,200,442.51,203,443.87,212.79Z" transform="translate(-415.73 -199.08)"/><path class="cls-1" d="M431.83,212.91c.65,4.6,6.05,6.31,8.42,8.89a.74.74,0,0,0,1.28-.61c-.56-3.76-5.18-5.65-5.33-9.41a9.61,9.61,0,0,1,3-7.35.74.74,0,0,0-.72-1.24C435.29,204,430.92,206.42,431.83,212.91Z" transform="translate(-415.73 -199.08)"/><path class="cls-1" d="M455.82,212.91c.65,4.6,6.05,6.31,8.42,8.89a.74.74,0,0,0,1.28-.61c-.56-3.76-5.18-5.65-5.33-9.41a9.61,9.61,0,0,1,3-7.35.74.74,0,0,0-.72-1.24C459.28,204,454.91,206.42,455.82,212.91Z" transform="translate(-415.73 -199.08)"/></svg>