<svg id="Objects" xmlns="http://www.w3.org/2000/svg" viewBox="0 0 63.35 64.78"><defs><style>.cls-1{fill:#e0e0e0;}</style></defs><title>Векторный смарт-объект2</title><path class="cls-1" d="M684.43,341.68a14.19,14.19,0,0,0-3.35.32v10.55a12.58,12.58,0,0,0,2.72.21c4.29,0,6.94-2.17,6.94-5.83C690.73,343.64,688.45,341.68,684.43,341.68Z" transform="translate(-653.32 -320.56)"/><path class="cls-1" d="M709,320.56H661a7.67,7.67,0,0,0-7.67,7.67v49.43a7.67,7.67,0,0,0,7.67,7.67h48a7.67,7.67,0,0,0,7.67-7.67V328.23A7.67,7.67,0,0,0,709,320.56Zm2.94,55.87a4.17,4.17,0,0,1-4.17,4.17H662.14a4.17,4.17,0,0,1-4.18-4.17V329.55a4.18,4.18,0,0,1,4.18-4.17h45.63a4.17,4.17,0,0,1,4.17,4.17Z" transform="translate(-653.32 -320.56)"/><path class="cls-1" d="M707.77,328.32H662.14a1.23,1.23,0,0,0-1.23,1.23v46.88a1.23,1.23,0,0,0,1.23,1.23h45.63a1.23,1.23,0,0,0,1.23-1.23V329.55A1.23,1.23,0,0,0,707.77,328.32Zm-12.31,26.87c-2.75,2.6-6.85,3.76-11.62,3.76a21.2,21.2,0,0,1-2.77-.16v12.8h-7.94V336.32a65.94,65.94,0,0,1,10.9-.74c5,0,8.52,1,10.91,2.86a10.44,10.44,0,0,1,3.81,8.27A11.41,11.41,0,0,1,695.46,355.19Z" transform="translate(-653.32 -320.56)"/></svg>