<svg id="Objects" xmlns="http://www.w3.org/2000/svg" viewBox="0 0 55.1 69.07"><defs><style>.cls-1{fill:#e0e0e0;}</style></defs><title>Векторный смарт-объект1</title><path class="cls-1" d="M361.07,200H318.92c-3.37,0-6.64,3.42-6.64,6.79v51.57c0,3.37,2.72,7.11,6.09,7.11h2.86v1.31a2.3,2.3,0,0,0,2.33,2.29h2.79a2.29,2.29,0,0,0,2.32-2.29v-1.31H351v1.31a2.29,2.29,0,0,0,2.32,2.29h2.79a2.3,2.3,0,0,0,2.33-2.29v-1.31h2.68c3.37,0,6.27-3.74,6.27-7.11V206.77C367.38,203.4,364.44,200,361.07,200ZM318.4,209.1V207a1.85,1.85,0,0,1,1.87-1.87h6.59a1.87,1.87,0,0,1,1.9,1.87v2.13a1.92,1.92,0,0,1-1.9,1.93h-6.59A1.9,1.9,0,0,1,318.4,209.1Zm21.31,44.76A19.89,19.89,0,1,1,359.59,234,19.89,19.89,0,0,1,339.71,253.86Z" transform="translate(-312.28 -199.95)"/><path class="cls-1" d="M339.71,218.81A15.17,15.17,0,1,0,354.88,234,15.17,15.17,0,0,0,339.71,218.81Zm0,24.29a9.12,9.12,0,1,1,9.12-9.12A9.13,9.13,0,0,1,339.71,243.09Z" transform="translate(-312.28 -199.95)"/><path class="cls-1" d="M335.9,231a5.42,5.42,0,1,0,8.61,6A15.06,15.06,0,0,1,335.9,231Z" transform="translate(-312.28 -199.95)"/></svg>