<svg id="Objects" xmlns="http://www.w3.org/2000/svg" viewBox="0 0 83.8 73.89"><defs><style>.cls-1{fill:#e0e0e0;}</style></defs><title>Векторный смарт-объект9</title><path class="cls-1" d="M685,582.88a11.48,11.48,0,0,0-6.67,2.13,1.24,1.24,0,0,0-.16,1.88l.94.94a1.23,1.23,0,0,0,1.56.15,7.72,7.72,0,0,1,8.64,0,1.23,1.23,0,0,0,1.56-.15l.94-.95a1.23,1.23,0,0,0-.16-1.88A11.47,11.47,0,0,0,685,582.88Z" transform="translate(-643.1 -554.05)"/><path class="cls-1" d="M685,576A22.53,22.53,0,0,0,673,579.54a1.24,1.24,0,0,0-.22,1.92l.94.95a1.24,1.24,0,0,0,1.51.18,18.9,18.9,0,0,1,19.62,0,1.24,1.24,0,0,0,1.51-.18l.94-.95a1.23,1.23,0,0,0-.22-1.92A22.52,22.52,0,0,0,685,576Z" transform="translate(-643.1 -554.05)"/><path class="cls-1" d="M668.72,577.4a1.23,1.23,0,0,0,1.54.16,27.37,27.37,0,0,1,29.57,0,1.23,1.23,0,0,0,1.54-.16l1-1a1.23,1.23,0,0,0-.2-1.9,31.13,31.13,0,0,0-34.16,0,1.24,1.24,0,0,0-.2,1.9Z" transform="translate(-643.1 -554.05)"/><circle class="cls-1" cx="42.1" cy="38.58" r="2.81"/><path class="cls-1" d="M654.66,609h60.63a3.79,3.79,0,0,0,3.79-3.79V557.84a3.79,3.79,0,0,0-3.79-3.79H654.66a3.79,3.79,0,0,0-3.79,3.79v47.37A3.79,3.79,0,0,0,654.66,609Zm1.89-48.16a1.1,1.1,0,0,1,1.1-1.1h54.63a1.1,1.1,0,0,1,1.1,1.1v41.37a1.1,1.1,0,0,1-1.1,1.1H657.66a1.1,1.1,0,0,1-1.1-1.1Z" transform="translate(-643.1 -554.05)"/><path class="cls-1" d="M726.66,622.83l-2.84-7.58a3.79,3.79,0,0,0-3.55-2.46H649.73a3.79,3.79,0,0,0-3.55,2.46l-2.84,7.58a3.79,3.79,0,0,0,3.55,5.12h76.22a3.79,3.79,0,0,0,3.55-5.12Z" transform="translate(-643.1 -554.05)"/></svg>